Patient4_TMGait_0pt8_01_left_46_EMG.mot
version=1
nRows=27
nColumns=33
inDegrees=no
endheader
time	1LAddLong	2LGlutMax	3LGlutMed	4LIliopsoas	5LSemiMemb	6LBicFemLong	7LRecFem	8LVastMed	9LVastLat	10LGasMed	11LTibAnt	12lTibPost	13LPeroneusLong	14LSol	15LExtDigLong	16LFlexDigLong	17RAddLong	18RGlutMax	19RGlutMed	20RIliopsoas	21RSemiMemb	22RBicFemLong	23RRecFem	24RVastMed	25RVastLat	26RGasMed	27RTibAnt	28RTibPost	29RPeroneusLong	30RSol	31RExtDigLong	32RFlexDigLong
51.21	0.011292	0.19363	-0.10941	0.018311	-0.024414	0.011292	-0.082703	0.000763	0.31235	-0.009308	-0.000763	-0.023956	-0.038757	0.29862	0.14358	0.00412	0.00946	0.83237	-0.39307	-0.012665	-0.026703	0.065613	-0.72678	-0.53711	0.46173	-0.031891	0.51041	-0.36972	0.11551	0.06485	0.001221	-0.017548
51.211	0.018463	0.21408	-0.10376	-0.011902	0.014191	0.018616	-0.069275	0.007172	0.31204	0.02594	-0.025024	-0.018768	0.04837	0.15762	0.03418	-0.089264	0.009155	0.90134	0.20126	-0.069122	-0.017853	-0.029449	-0.23956	-0.20615	0.11169	-0.020599	0.48309	0.28153	-0.14603	-0.34607	0.006409	-0.015717
51.212	0.028839	0.22873	-0.11566	-0.006866	0.00824	0.033875	-0.054016	0.001221	0.30899	0.041351	0.041351	-0.028381	0.069122	-0.049133	-0.025635	-0.38284	0.010529	0.93536	0.94315	-0.12619	-0.01358	-0.091858	0.56274	0.011292	-0.70541	0.010223	0.87143	0.25559	-0.12772	-0.45075	0.001526	-0.006714
51.213	0.018921	0.24765	-0.11704	-0.010834	-0.005951	0.026245	-0.05127	-0.000305	0.30121	0.058441	-0.016022	-0.009003	-0.000153	-0.15823	0.65567	-0.065918	0.007782	0.89157	0.7132	-0.1236	-0.014038	-0.11444	0.82687	-0.054321	-0.88531	0.001526	0.5394	0.063324	0.059814	0.21027	0.001831	-0.007477
51.214	0.027618	0.21668	-0.09964	-0.010376	-0.003052	0.021515	-0.043488	0.004578	0.29572	0.063477	0.15442	-0.018158	-0.02594	-0.19119	0.58655	0.91705	-0.005798	0.78751	0.53818	-0.030365	-0.019226	-0.18539	0.54047	-0.11643	-0.73181	-0.000458	-0.016479	0.027771	0.12711	-0.028076	0.002136	0.001373
51.215	0.024109	0.24002	-0.046387	-0.018311	0.009155	-0.014648	-0.059814	0.00061	0.29388	0.06073	0.084686	-0.022278	0.089569	-0.11597	-0.79468	-0.031891	-0.001373	0.75089	0.44052	0.026855	-0.028534	-0.13062	-0.058899	-0.1062	-0.31296	-0.002899	-0.96558	0.014343	0.18249	-0.16571	0.002899	-0.006104
51.216	0.020752	0.21301	-0.081787	-0.007324	-0.011444	-0.01297	-0.041504	0.002747	0.27161	0.049438	0.007629	-0.015564	0.049591	-0.022736	-0.48675	-0.065308	-0.005798	0.72876	0.30472	0.12756	-0.041351	0.010071	-0.15274	0.083008	-0.15488	0.006256	-1.2239	-0.059052	0.24612	-0.57571	0.000916	-0.007477
51.217	0.016327	0.22919	-0.085449	-0.018463	0.007019	0.012512	-0.032196	0.006561	0.25528	0.027008	-0.24582	-0.019073	-0.054779	-0.080566	-0.33142	0.32852	-0.002136	0.74707	0.32425	0.18097	-0.039063	0.32577	-0.13153	-0.033417	0.15686	0.019836	-0.71503	-0.024872	0.18143	-0.29953	0.002441	-0.001068
51.218	0.018005	0.18768	-0.05249	-0.00885	0.012665	0.046082	-0.032501	0.004883	0.25009	-0.046387	-0.19089	-0.022888	-0.061951	0.027771	-0.25452	0.39978	0.005188	0.62149	0.3862	0.16739	-0.025635	0.20508	-0.11231	0.069122	0.43411	0.007477	0.46371	0.016479	-0.001984	0.0354	0.001831	0.003052
51.219	0.017395	0.15533	0.029755	0.009766	0.010223	0.061035	-0.029449	-0.001984	0.25711	-0.090485	-0.072632	-0.008392	-0.039978	0.04837	-0.11475	-0.059052	0.001678	0.57297	0.15808	0.032654	-0.001373	0.04776	-0.4216	0.071259	0.37949	-0.013885	0.92728	-0.002747	-0.13031	-0.089111	0	-0.00824
51.22	0.010681	0.14679	0.055695	0.007629	0.012665	0.090027	-0.037384	-0.000916	0.26032	-0.076141	-0.028076	-0.005798	0.077362	-0.1738	-0.14526	-0.046844	-0.003052	0.51605	-0.3952	-0.047302	0.006714	0.05127	-0.55725	0.032501	0.21942	-0.005951	0.6218	-0.005493	-0.026398	-0.25146	0.002136	-0.004883
51.221	0.012207	0.121	0.052948	0.00473	0.007935	0.07019	-0.037994	0.001678	0.24674	-0.032806	-0.080872	-0.020294	0.080109	-0.14633	-0.16052	-0.24628	-0.022583	0.48737	0.16586	-0.086212	0.02243	0.23529	-0.69595	0.13947	0.33737	0.004578	1.1688	-0.005035	0.12344	-0.20798	0.002747	-0.004578
51.222	0.020294	0.12283	-0.025787	0.012665	-0.010834	0.065918	-0.034943	0.00412	0.24078	-0.000153	-0.10742	-0.013275	0.027618	-0.065155	0.071106	-0.076447	-0.017548	0.48309	0.79681	-0.033417	-0.002899	0.24963	-0.51651	0.27359	0.44357	-0.008698	0.89203	-0.003204	0.1915	-0.39612	-0.00061	-0.010071
51.223	0.01236	0.14023	-0.098572	0.014038	-0.01709	0.049438	-0.02243	0.003662	0.25345	0.007629	-0.19531	-0.019379	-0.015564	-0.10849	0.29266	0.004578	0.011902	0.46982	0.82398	-0.037079	-0.04837	0.15396	-0.20767	0.1268	-0.014038	0.001984	-0.40405	-0.011597	0.11139	-0.68527	0.000153	-0.009003
51.224	0.007172	0.15839	-0.13641	0.021973	-0.000153	0.036469	-0.016022	-0.001678	0.24399	-0.006409	-0.14999	-0.015411	0.09613	-0.17075	0.30731	-0.017548	0.002136	0.34897	0.9201	-0.03952	-0.059052	0.16632	-0.16068	-0.27908	-0.40771	-0.00946	-0.95962	-0.021362	-0.16541	-0.44998	0.009613	-0.0177
51.225	0.012207	0.18524	-0.035706	0.014954	0.010071	0.039368	-0.024109	0.004578	0.2533	-0.022583	-0.012054	-0.006409	0.10422	-0.25238	0.41473	-0.011139	0.017548	0.32867	0.69473	-0.1059	-0.072174	0.095062	0.028381	-0.56091	-0.50507	-0.013733	-1.3754	-0.034027	-0.11475	0.061493	0.000458	-0.014954
51.226	0.00885	0.20111	0.007477	0.001221	-0.010071	0.056152	-0.028992	0.006866	0.24399	-0.037537	0.097198	-0.008545	0.10407	-0.1564	0.031738	0.009003	0.003204	0.36499	0.76828	-0.072937	-0.053864	0.051422	-0.075836	-0.4982	-0.22537	-0.014038	-1.4027	-0.022583	-0.041351	0.12344	0.002441	-0.021515
51.227	0.007629	0.2388	0.010681	0.018005	-0.018311	0.051117	-0.024872	0.005188	0.23926	-0.028534	0.22308	-0.010223	0.030518	-0.077057	-0.19241	-0.022888	-0.00824	0.35934	0.88074	-0.05127	0.005951	-0.24506	-0.27435	-0.40207	-0.28122	-0.011292	-0.86975	-0.028992	0.084991	0.049896	0.001068	-0.010986
51.228	0.032959	0.24735	0.032043	0.017395	0.008087	0.046082	-0.023193	0.007477	0.24597	-0.023193	0.098114	-0.015869	0.005798	-0.075531	-0.27481	-0.11383	-0.010376	0.3392	0.9346	0.037537	-0.007935	-0.34607	-0.49606	-0.1767	-0.59815	-0.011902	0.016479	-0.039063	0.16312	0.11124	0.002441	0.002136
51.229	0.014496	0.25436	0.007324	0.005646	0.016327	0.063019	-0.006561	0.003662	0.23544	-0.014038	0.074615	0.00061	-0.019379	-0.030823	-0.17273	-0.13534	0.003052	0.28305	0.63232	0.12863	-0.017395	-0.26276	-0.58289	0.083313	-0.40832	-0.01709	-0.1918	-0.051117	0.05127	0.57373	0.003967	-0.013123
51.23	0.016479	0.26306	-0.000305	0.001526	0.014801	0.050507	-0.01236	0.006256	0.24567	-0.037384	0.089111	-0.009918	0.006714	-0.1236	-0.16464	0.017853	0.013733	0.27969	0.12161	0.11276	-0.027008	-0.24811	-0.30487	0.36697	-0.16388	-0.037079	-0.1622	0.06134	-0.050354	0.36301	0.002594	-0.006409
51.231	0.010986	0.2713	0.012512	0.005341	0.028381	0.050507	-0.010223	0.006866	0.23025	-0.055084	0.007019	-0.019226	0.030518	-0.066223	-0.016174	0.016479	0.00351	0.31754	0.10254	-0.014038	-0.013123	-0.21606	-0.21942	0.35523	-0.16083	-0.049896	0.003052	0.009918	0.026855	0.71426	0	-0.002289
51.232	0.003967	0.26642	-0.010986	0.000458	0.01236	0.067139	-0.02533	0.007935	0.21469	-0.048218	0.019226	-0.011749	0.030365	-0.07782	0.038605	0.000916	0.013275	0.42023	0.70541	-0.038605	-0.039063	-0.1593	-0.16861	0.20065	-0.16296	-0.032654	0.42679	-0.027313	-0.086212	1.1688	0.001221	-0.00412
51.233	0.007172	0.26642	-0.011749	0.030365	-0.059204	0.063019	-0.013275	0.007782	0.20844	-0.049896	-0.004272	-0.003967	0.010376	-0.10208	0.009308	0.005951	0.025024	0.32928	0.63675	-0.032959	-0.035706	-0.10239	0.19501	0.13947	0.022125	0.00885	0.39291	-0.000458	-0.027618	0.83344	0.001221	-0.002899
51.234	0.00946	0.23209	-0.003052	0.016174	-0.12238	0.049896	0.005798	0.008392	0.20401	-0.05127	0.003815	-0.006409	0.025024	0.019226	0.072327	-0.030212	0.007782	0.33783	1.1668	0.017548	-0.026245	-0.033875	0.40817	0.22293	0.26215	0.015259	-0.6424	0.04364	0.09552	0.42923	-0.004425	-0.009155
51.235	0.014954	0.18265	-0.039673	0.003815	-0.13275	0.016174	-0.01297	0.008698	0.18616	-0.03952	0.052032	0.000458	0.077667	0.039825	0.083923	-0.024567	-0.001221	0.33295	1.0335	0.043488	-0.02533	-0.037079	0.24094	0.12985	0.092773	0.014954	-0.62332	-0.036163	0.1033	0.27954	-0.002747	-0.024261
51.236	0.00885	0.13702	-0.065155	-0.00351	-0.055237	-0.04776	-0.008545	0.006866	0.1947	-0.050507	0.018921	-0.006561	0.073547	-0.15472	-0.011597	-0.01358	0.003815	0.31967	0.90378	-0.067139	-0.030823	-0.057678	0.15961	-0.097809	-0.059814	0.00061	-0.18234	-0.02121	0.031738	0.058594	-0.000153	-0.018768
